<svg xmlns="http://www.w3.org/2000/svg" id="Calque_1" data-name="Calque 1" viewBox="0 0 84.83 54"><defs><style>.cls-1{fill:#fff}</style></defs><rect width="63.13" height="53" x=".5" y=".5" class="cls-1"/><path d="M67.12,6V58H5V6H67.12m1-1H4V59H68.12V5Z" class="cls-1" transform="translate(-4 -5)"/><rect width="15.46" height="12.86" x="68.87" y=".75" class="cls-1"/><path d="M87.83,6.25V18.12H73.37V6.25H87.83m1-1H72.37V19.12H88.83V5.25Z" class="cls-1" transform="translate(-4 -5)"/><rect width="15.46" height="12.86" x="68.87" y="17.69" class="cls-1"/><path d="M87.83,23.19V35.05H73.37V23.19H87.83m1-1H72.37V36.05H88.83V22.19Z" class="cls-1" transform="translate(-4 -5)"/><rect width="15.46" height="12.86" x="68.87" y="34.75" class="cls-1"/><path d="M87.83,40.25V52.12H73.37V40.25H87.83m1-1H72.37V53.12H88.83V39.25Z" class="cls-1" transform="translate(-4 -5)"/></svg>