<svg xmlns="http://www.w3.org/2000/svg" xmlns:svg="http://www.w3.org/2000/svg" id="svg2985" width="485.336" height="485.336" version="1.1"><metadata id="metadata2991"/><g id="layer1" style="display:inline" transform="translate(-57.33186,-57.33186)"><path style="color:#000;fill:#fff;fill-opacity:1;stroke:#000;stroke-width:2.5;marker:none;visibility:visible;display:inline;overflow:visible;enable-background:accumulate" id="path2997" d="M 540,300 C 540,432.54834 432.54834,540 300,540 167.45166,540 60,432.54834 60,300 60,167.45166 167.45166,60 300,60 432.54834,60 540,167.45166 540,300 z" transform="matrix(1.0058783,0,0,1.0058783,-1.76349,-1.76349)"/><path style="color:#000;fill:red;fill-opacity:1;fill-rule:nonzero;stroke:none;stroke-width:2.5;marker:none;visibility:visible;display:inline;overflow:visible;enable-background:accumulate" id="path4005" d="m 349.5,214.75 c 0,24.71474 -20.03526,44.75 -44.75,44.75 -24.71474,0 -44.75,-20.03526 -44.75,-44.75 0,-24.71474 20.03526,-44.75 44.75,-44.75 24.71474,0 44.75,20.03526 44.75,44.75 z" transform="matrix(5.1364411,0,0,5.1364411,-1265.3304,-803.05073)"/><rect style="color:#000;fill:#fff;fill-opacity:1;fill-rule:nonzero;stroke:none;stroke-width:2.5;marker:none;visibility:visible;display:inline;overflow:visible;enable-background:accumulate" id="rect4001" width="345" height="80.6" x="127.5" y="259.7"/></g></svg>