<svg xmlns="http://www.w3.org/2000/svg" xmlns:xlink="http://www.w3.org/1999/xlink" id="Calque_1" x="0" y="0" version="1.1" viewBox="0 0 384 384" style="enable-background:new 0 0 384 384" xml:space="preserve"><style type="text/css">.st0{fill:#fff}</style><path d="M368,207.7H16c-8.8,0-16-7.2-16-16s7.2-16,16-16h352c8.8,0,16,7.2,16,16S376.8,207.7,368,207.7z" class="st0"/><path d="M368,85H16C7.2,85,0,77.8,0,69s7.2-16,16-16h352c8.8,0,16,7.2,16,16S376.8,85,368,85z" class="st0"/><path d="M368,330.3H16c-8.8,0-16-7.2-16-16s7.2-16,16-16h352c8.8,0,16,7.2,16,16S376.8,330.3,368,330.3z" class="st0"/></svg>