<svg xmlns="http://www.w3.org/2000/svg" xmlns:xlink="http://www.w3.org/1999/xlink" width="512" height="512" viewBox="0 0 152 152"><linearGradient id="linear-gradient" x1="61.53" x2="78.21" y1="67.67" y2="84.36" gradientUnits="userSpaceOnUse"><stop offset="0" stop-color="#b71c1c"/><stop offset="1" stop-color="#b71c1c" stop-opacity="0"/></linearGradient><linearGradient id="linear-gradient-2" x1="71.68" x2="129.78" y1="71.6" y2="129.69" xlink:href="#linear-gradient"/><g id="Layer_2" data-name="Layer 2"><g id="Color"><g id="_02.YouTube" data-name="02.YouTube"><circle id="Background" cx="76" cy="76" r="76" fill="red"/><g id="Shadow"><path fill="url(#linear-gradient)" d="m86.54 76.03-21.08 12.23v-24.52z"/><path fill="url(#linear-gradient-2)" d="m150.55 90.82a76.07 76.07 0 0 1 -59.55 59.7l-49.1-49.1a15 15 0 0 0 9.27 3.17h49.74a15.13 15.13 0 0 0 15.09-15.14v-26.9a15.08 15.08 0 0 0 -4.26-10.55z"/></g><path id="Icon" fill="#fff" d="m100.87 47.41h-49.74a15.13 15.13 0 0 0 -15.13 15.14v26.9a15.13 15.13 0 0 0 15.13 15.14h49.74a15.13 15.13 0 0 0 15.13-15.14v-26.9a15.13 15.13 0 0 0 -15.13-15.14zm-35.41 40.85v-24.52l21.08 12.26z"/></g></g></g></svg>