<svg xmlns="http://www.w3.org/2000/svg" version="1.1" viewBox="0 0 16 16"><rect width="1" height="1" x="7" y="0" fill="#000"/><rect width="1" height="1" x="8" y="0" fill="#000"/><rect width="1" height="1" x="2" y="1" fill="#000"/><rect width="1" height="1" x="7" y="1" fill="#000"/><rect width="1" height="1" x="8" y="1" fill="#000"/><rect width="1" height="1" x="13" y="1" fill="#000"/><rect width="1" height="1" x="1" y="2" fill="#000"/><rect width="1" height="1" x="2" y="2" fill="#000"/><rect width="1" height="1" x="3" y="2" fill="#000"/><rect width="1" height="1" x="5" y="2" fill="#000"/><rect width="1" height="1" x="6" y="2" fill="#000"/><rect width="1" height="1" x="7" y="2" fill="#000"/><rect width="1" height="1" x="8" y="2" fill="#000"/><rect width="1" height="1" x="9" y="2" fill="#000"/><rect width="1" height="1" x="10" y="2" fill="#000"/><rect width="1" height="1" x="12" y="2" fill="#000"/><rect width="1" height="1" x="13" y="2" fill="#000"/><rect width="1" height="1" x="14" y="2" fill="#000"/><rect width="1" height="1" x="2" y="3" fill="#000"/><rect width="1" height="1" x="3" y="3" fill="#000"/><rect width="1" height="1" x="4" y="3" fill="#000"/><rect width="1" height="1" x="5" y="3" fill="#000"/><rect width="1" height="1" x="6" y="3" fill="#000"/><rect width="1" height="1" x="7" y="3" fill="#000"/><rect width="1" height="1" x="8" y="3" fill="#000"/><rect width="1" height="1" x="9" y="3" fill="#000"/><rect width="1" height="1" x="10" y="3" fill="#000"/><rect width="1" height="1" x="11" y="3" fill="#000"/><rect width="1" height="1" x="12" y="3" fill="#000"/><rect width="1" height="1" x="13" y="3" fill="#000"/><rect width="1" height="1" x="3" y="4" fill="#000"/><rect width="1" height="1" x="4" y="4" fill="#000"/><rect width="1" height="1" x="11" y="4" fill="#000"/><rect width="1" height="1" x="12" y="4" fill="#000"/><rect width="1" height="1" x="2" y="5" fill="#000"/><rect width="1" height="1" x="3" y="5" fill="#000"/><rect width="1" height="1" x="12" y="5" fill="#000"/><rect width="1" height="1" x="13" y="5" fill="#000"/><rect width="1" height="1" x="2" y="6" fill="#000"/><rect width="1" height="1" x="3" y="6" fill="#000"/><rect width="1" height="1" x="12" y="6" fill="#000"/><rect width="1" height="1" x="13" y="6" fill="#000"/><rect width="1" height="1" x="0" y="7" fill="#000"/><rect width="1" height="1" x="1" y="7" fill="#000"/><rect width="1" height="1" x="2" y="7" fill="#000"/><rect width="1" height="1" x="3" y="7" fill="#000"/><rect width="1" height="1" x="12" y="7" fill="#000"/><rect width="1" height="1" x="13" y="7" fill="#000"/><rect width="1" height="1" x="14" y="7" fill="#000"/><rect width="1" height="1" x="15" y="7" fill="#000"/><rect width="1" height="1" x="0" y="8" fill="#000"/><rect width="1" height="1" x="1" y="8" fill="#000"/><rect width="1" height="1" x="2" y="8" fill="#000"/><rect width="1" height="1" x="3" y="8" fill="#000"/><rect width="1" height="1" x="12" y="8" fill="#000"/><rect width="1" height="1" x="13" y="8" fill="#000"/><rect width="1" height="1" x="14" y="8" fill="#000"/><rect width="1" height="1" x="15" y="8" fill="#000"/><rect width="1" height="1" x="2" y="9" fill="#000"/><rect width="1" height="1" x="3" y="9" fill="#000"/><rect width="1" height="1" x="12" y="9" fill="#000"/><rect width="1" height="1" x="13" y="9" fill="#000"/><rect width="1" height="1" x="2" y="10" fill="#000"/><rect width="1" height="1" x="3" y="10" fill="#000"/><rect width="1" height="1" x="12" y="10" fill="#000"/><rect width="1" height="1" x="13" y="10" fill="#000"/><rect width="1" height="1" x="3" y="11" fill="#000"/><rect width="1" height="1" x="4" y="11" fill="#000"/><rect width="1" height="1" x="11" y="11" fill="#000"/><rect width="1" height="1" x="12" y="11" fill="#000"/><rect width="1" height="1" x="2" y="12" fill="#000"/><rect width="1" height="1" x="3" y="12" fill="#000"/><rect width="1" height="1" x="4" y="12" fill="#000"/><rect width="1" height="1" x="5" y="12" fill="#000"/><rect width="1" height="1" x="6" y="12" fill="#000"/><rect width="1" height="1" x="7" y="12" fill="#000"/><rect width="1" height="1" x="8" y="12" fill="#000"/><rect width="1" height="1" x="9" y="12" fill="#000"/><rect width="1" height="1" x="10" y="12" fill="#000"/><rect width="1" height="1" x="11" y="12" fill="#000"/><rect width="1" height="1" x="12" y="12" fill="#000"/><rect width="1" height="1" x="13" y="12" fill="#000"/><rect width="1" height="1" x="1" y="13" fill="#000"/><rect width="1" height="1" x="2" y="13" fill="#000"/><rect width="1" height="1" x="3" y="13" fill="#000"/><rect width="1" height="1" x="5" y="13" fill="#000"/><rect width="1" height="1" x="6" y="13" fill="#000"/><rect width="1" height="1" x="7" y="13" fill="#000"/><rect width="1" height="1" x="8" y="13" fill="#000"/><rect width="1" height="1" x="9" y="13" fill="#000"/><rect width="1" height="1" x="10" y="13" fill="#000"/><rect width="1" height="1" x="12" y="13" fill="#000"/><rect width="1" height="1" x="13" y="13" fill="#000"/><rect width="1" height="1" x="14" y="13" fill="#000"/><rect width="1" height="1" x="2" y="14" fill="#000"/><rect width="1" height="1" x="7" y="14" fill="#000"/><rect width="1" height="1" x="8" y="14" fill="#000"/><rect width="1" height="1" x="13" y="14" fill="#000"/><rect width="1" height="1" x="7" y="15" fill="#000"/><rect width="1" height="1" x="8" y="15" fill="#000"/></svg>